<?xml version="1.0" encoding="UTF-8"?>
<svg id="Ebene_1" xmlns="http://www.w3.org/2000/svg" xmlns:xlink="http://www.w3.org/1999/xlink" version="1.1" viewBox="0 0 106.8 85.04">
  <!-- Generator: Adobe Illustrator 29.6.0, SVG Export Plug-In . SVG Version: 2.1.1 Build 207)  -->
  <defs>
    <style>
      .st0 {
        fill: url(#Unbenannter_Verlauf);
        filter: url(#drop-shadow-1);
      }
    </style>
    <linearGradient id="Unbenannter_Verlauf" data-name="Unbenannter Verlauf" x1="3.6" y1="45.64" x2="100.1" y2="45.64" gradientTransform="translate(0 88) scale(1 -1)" gradientUnits="userSpaceOnUse">
      <stop offset="0" stop-color="#cb2527"/>
      <stop offset=".37" stop-color="#ff4b4b"/>
      <stop offset="1" stop-color="#f2f2f2"/>
    </linearGradient>
    <filter id="drop-shadow-1" x="1.45" y="1.49" width="103" height="85" filterUnits="userSpaceOnUse">
      <feOffset dx=".85" dy=".85"/>
      <feGaussianBlur result="blur" stdDeviation=".85"/>
      <feFlood flood-color="#7c3838" flood-opacity=".35"/>
      <feComposite in2="blur" operator="in"/>
      <feComposite in="SourceGraphic"/>
    </filter>
  </defs>
  <path class="st0" d="M75.44,6.61c-.27-.13-.6-.27-1.01-.47-6.05-2.62-14.72-2.76-14.72-2.76h-18.88l.07.07h-14.51c-12.57,0-22.79,10.21-22.79,22.78,0,6.32,2.55,11.89,6.65,16.06v.07c-4.1,4.17-6.65,9.81-6.65,16.06,0,12.57,10.21,22.85,22.78,22.85h31.38c.67.07,1.34.07,2.02.07,22.24,0,40.32-17.47,40.32-38.91,0-16.13-10.15-29.97-24.66-35.82ZM48.76,65.61c-1.61,1.41-3.7,2.22-5.98,2.22h-16.4c-5.17,0-9.34-4.23-9.34-9.41,0-2.96,1.34-5.58,3.49-7.19,1.55-1.34,3.63-2.15,5.85-2.15h16.4c5.17,0,9.41,4.17,9.41,9.34,0,2.89-1.34,5.51-3.43,7.19ZM42.78,35.64h-16.4c-2.22,0-4.3-.81-5.85-2.08-2.15-1.75-3.49-4.37-3.49-7.32,0-5.17,4.17-9.34,9.34-9.34h16.4c2.35,0,4.5.87,6.11,2.28,2.02,1.68,3.29,4.23,3.29,7.06,0,5.17-4.23,9.41-9.41,9.41h0ZM63.68,67.56c1.28-2.82,1.95-5.91,1.95-9.14,0-6.25-2.55-11.89-6.72-16.06v-.07c4.17-4.17,6.72-9.74,6.72-16.06,0-3.16-.67-6.18-1.88-8.94,12.9,1.75,22.91,12.36,22.91,25.13s-10.01,23.39-22.98,25.13h0Z"/>
</svg>