<?xml version="1.0" encoding="UTF-8"?>
<svg id="Ebene_1" xmlns="http://www.w3.org/2000/svg" xmlns:xlink="http://www.w3.org/1999/xlink" version="1.1" viewBox="0 0 368.5 85.04">
  <!-- Generator: Adobe Illustrator 29.6.0, SVG Export Plug-In . SVG Version: 2.1.1 Build 207)  -->
  <defs>
    <style>
      .st0 {
        filter: url(#drop-shadow-1);
      }

      .st1 {
        fill: url(#Unbenannter_Verlauf);
      }

      .st2 {
        fill: #ff4b4b;
      }
    </style>
    <filter id="drop-shadow-1" x=".45" y="1.49" width="369" height="85" filterUnits="userSpaceOnUse">
      <feOffset dx=".85" dy=".85"/>
      <feGaussianBlur result="blur" stdDeviation=".85"/>
      <feFlood flood-color="#7c3838" flood-opacity=".35"/>
      <feComposite in2="blur" operator="in"/>
      <feComposite in="SourceGraphic"/>
    </filter>
    <linearGradient id="Unbenannter_Verlauf" data-name="Unbenannter Verlauf" x1="2.38" y1="45.48" x2="98.88" y2="45.48" gradientTransform="translate(0 88) scale(1 -1)" gradientUnits="userSpaceOnUse">
      <stop offset="0" stop-color="#ff4b4b"/>
      <stop offset=".37" stop-color="#ff4b4b"/>
      <stop offset="1" stop-color="#f2f2f2"/>
    </linearGradient>
  </defs>
  <g class="st0">
    <path class="st1" d="M74.21,6.77c-.27-.13-.6-.27-1.01-.47-6.05-2.62-14.72-2.76-14.72-2.76h-18.88l.07.07h-14.51c-12.57,0-22.78,10.22-22.78,22.78,0,6.32,2.55,11.89,6.65,16.06v.07c-4.1,4.17-6.65,9.81-6.65,16.06,0,12.57,10.21,22.85,22.78,22.85h31.38c.67.07,1.34.07,2.02.07,22.24,0,40.32-17.47,40.32-38.91,0-16.13-10.15-29.97-24.66-35.82h-.01ZM47.53,65.77c-1.61,1.41-3.7,2.22-5.98,2.22h-16.4c-5.17,0-9.34-4.23-9.34-9.41,0-2.96,1.34-5.58,3.49-7.19,1.55-1.34,3.63-2.15,5.85-2.15h16.4c5.17,0,9.41,4.17,9.41,9.34,0,2.89-1.34,5.51-3.43,7.19ZM41.55,35.8h-16.4c-2.22,0-4.3-.81-5.85-2.08-2.15-1.75-3.49-4.37-3.49-7.32,0-5.17,4.17-9.34,9.34-9.34h16.4c2.35,0,4.5.87,6.11,2.28,2.02,1.68,3.29,4.23,3.29,7.06,0,5.17-4.23,9.41-9.41,9.41h0ZM62.45,67.72c1.28-2.82,1.95-5.91,1.95-9.14,0-6.25-2.55-11.89-6.72-16.06v-.07c4.17-4.17,6.72-9.74,6.72-16.06,0-3.16-.67-6.18-1.88-8.94,12.9,1.75,22.91,12.36,22.91,25.13s-10.01,23.39-22.98,25.13h0Z"/>
    <g>
      <path class="st2" d="M105.81,22.98c3.58,0,6.5.93,8.76,2.8,2.25,1.87,3.38,4.2,3.38,7,0,1.79-.47,3.37-1.41,4.73-.95,1.36-2.31,2.44-4.1,3.25v.34c2.72.62,4.84,1.83,6.37,3.65,1.52,1.82,2.28,3.95,2.28,6.39,0,2.17-.56,4.1-1.66,5.81-1.11,1.71-2.65,2.99-4.62,3.85-1.97.86-4.29,1.29-6.96,1.29h-16.37V22.98h14.33ZM103.79,39.2c1.99,0,3.57-.48,4.73-1.43s1.74-2.28,1.74-3.97c0-1.51-.53-2.71-1.6-3.59-1.06-.89-2.46-1.33-4.2-1.33h-5.43v10.33h4.76,0ZM105.55,56.16c2.55,0,4.49-.48,5.79-1.44s1.95-2.37,1.95-4.24c0-1.66-.65-2.97-1.94-3.93s-3.03-1.44-5.22-1.44h-7.11v11.05h6.53Z"/>
      <path class="st2" d="M151.3,22.98v5.9h-16.29v10.1h16.29v5.96h-16.29v17.12h-7.55V22.98h23.84Z"/>
      <path class="st2" d="M220.98,22.47c2.22,0,4.39.25,6.52.76,2.13.5,4.42,1.36,6.89,2.57v7.11c-2.41-1.38-4.63-2.38-6.67-2.99s-4.17-.92-6.39-.92c-2.78,0-5.29.57-7.53,1.72s-3.98,2.76-5.22,4.85-1.86,4.41-1.86,6.97.62,4.95,1.85,7.02,2.96,3.67,5.21,4.8c2.24,1.13,4.76,1.69,7.55,1.69,2.14,0,4.19-.31,6.14-.92s4.41-1.73,7.38-3.33v7.11c-2.54,1.33-4.87,2.27-7,2.83-2.12.56-4.61.84-7.44.84-4.12,0-7.81-.82-11.05-2.46s-5.79-4.01-7.65-7.09c-1.86-3.09-2.78-6.47-2.78-10.14,0-3.94.96-7.47,2.87-10.61,1.91-3.13,4.54-5.55,7.89-7.25s7.12-2.55,11.32-2.55h-.03Z"/>
      <path class="st2" d="M256.35,22.98c3.58,0,6.5.93,8.76,2.8s3.39,4.2,3.39,7c0,1.79-.47,3.37-1.41,4.73s-2.31,2.44-4.1,3.25v.34c2.73.62,4.84,1.83,6.37,3.65s2.28,3.95,2.28,6.39c0,2.17-.55,4.1-1.66,5.81-1.11,1.71-2.65,2.99-4.62,3.85-1.97.86-4.29,1.29-6.96,1.29h-16.37V22.98h14.33-.01ZM254.34,39.2c2,0,3.57-.48,4.73-1.43s1.73-2.28,1.73-3.97c0-1.51-.53-2.71-1.59-3.59-1.06-.89-2.46-1.33-4.2-1.33h-5.43v10.33h4.76,0ZM256.1,56.16c2.55,0,4.48-.48,5.79-1.44s1.96-2.37,1.96-4.24c0-1.66-.65-2.97-1.94-3.93s-3.03-1.44-5.22-1.44h-7.11v11.05s6.52,0,6.52,0Z"/>
      <path class="st2" d="M297.62,22.47c4.04,0,7.69.83,10.92,2.51,3.23,1.67,5.82,4.07,7.74,7.22,1.92,3.15,2.88,6.59,2.88,10.34s-.94,7.04-2.81,10.17c-1.87,3.12-4.45,5.55-7.72,7.27-3.28,1.73-6.97,2.59-11.07,2.59s-7.73-.88-11.04-2.63-5.89-4.16-7.73-7.23c-1.85-3.07-2.77-6.46-2.77-10.17s.92-6.95,2.77-10.1c1.85-3.15,4.39-5.6,7.64-7.34s6.98-2.62,11.19-2.62h0ZM283.82,42.53c0,2.59.59,4.92,1.77,6.99,1.17,2.07,2.81,3.67,4.91,4.81,2.1,1.14,4.47,1.71,7.12,1.71,4.01,0,7.31-1.26,9.89-3.78,2.59-2.52,3.88-5.76,3.88-9.74,0-2.59-.58-4.93-1.75-7.01s-2.81-3.69-4.92-4.83-4.5-1.71-7.15-1.71-5.03.57-7.15,1.72-3.74,2.75-4.88,4.81c-1.13,2.06-1.71,4.4-1.71,7.01v.02Z"/>
      <path class="st2" d="M332.18,22.98l12.84,15.42,12.85-15.42h6.74v39.09h-7.55v-27.45h-.22l-11.31,13.77h-1.06l-11.31-13.77h-.22v27.45h-7.55V22.98h6.8-.01Z"/>
    </g>
    <path class="st2" d="M189.85,39.6v5.85h-28.93v-5.85h28.93Z"/>
  </g>
</svg>